<svg width="20" height="20" viewBox="0 0 20 20" fill="none" xmlns="http://www.w3.org/2000/svg">
<path d="M7.22656 11.9415C7.22656 13.0165 8.05156 13.8832 9.07656 13.8832H11.1682C12.0599 13.8832 12.7849 13.1249 12.7849 12.1915C12.7849 11.1749 12.3432 10.8165 11.6849 10.5832L8.32656 9.41654C7.66823 9.18321 7.22656 8.82487 7.22656 7.80821C7.22656 6.87487 7.95156 6.11654 8.84323 6.11654H10.9349C11.9599 6.11654 12.7849 6.98321 12.7849 8.05821" stroke="#AFAFAF" stroke-width="1.5" stroke-linecap="round" stroke-linejoin="round"/>
<path d="M10 5V15" stroke="#AFAFAF" stroke-width="1.5" stroke-linecap="round" stroke-linejoin="round"/>
<path d="M9.99996 18.3333C14.6023 18.3333 18.3333 14.6024 18.3333 10C18.3333 5.39762 14.6023 1.66666 9.99996 1.66666C5.39759 1.66666 1.66663 5.39762 1.66663 10C1.66663 14.6024 5.39759 18.3333 9.99996 18.3333Z" stroke="#AFAFAF" stroke-width="1.5" stroke-linecap="round" stroke-linejoin="round"/>
</svg>
