<svg width="16" height="17" viewBox="0 0 16 17" fill="none" xmlns="http://www.w3.org/2000/svg">
<path d="M7.99996 8.17197L14.5045 4.65505C14.2976 3.98036 13.878 3.38917 13.3073 2.96826C12.7365 2.54735 12.0447 2.31889 11.3333 2.31641H4.66662C3.95524 2.31889 3.2634 2.54735 2.69265 2.96826C2.12189 3.38917 1.70229 3.98036 1.49542 4.65505L7.99996 8.17197Z" fill="#424F50"/>
<path d="M8.31937 9.50469C8.22141 9.55762 8.11162 9.58536 8.00004 9.58536C7.88847 9.58536 7.77867 9.55762 7.68071 9.50469L1.33337 6.07275V10.9071C1.33441 11.7831 1.68594 12.6229 2.31083 13.2423C2.93573 13.8618 3.78297 14.2102 4.66671 14.2113H11.3334C12.2171 14.2102 13.0644 13.8618 13.6892 13.2423C14.3141 12.6229 14.6657 11.7831 14.6667 10.9071V6.07275L8.31937 9.50469Z" fill="#424F50"/>
</svg>
