<svg width="16" height="16" viewBox="0 0 16 16" fill="none" xmlns="http://www.w3.org/2000/svg">
<g clip-path="url(#clip0_90_812)">
<path d="M8 0.0683594C4.692 0.0683594 2 2.75533 2 6.05887C2 10.7528 7.436 15.5994 7.66733 15.8029C7.76267 15.8869 7.88133 15.9285 8 15.9285C8.11867 15.9285 8.23733 15.8869 8.33267 15.8036C8.564 15.5994 14 10.7528 14 6.05887C14 2.75533 11.308 0.0683594 8 0.0683594ZM8 9.32011C6.162 9.32011 4.66667 7.83785 4.66667 6.01591C4.66667 4.19398 6.162 2.71172 8 2.71172C9.838 2.71172 11.3333 4.19398 11.3333 6.01591C11.3333 7.83785 9.838 9.32011 8 9.32011Z" fill="#582949"/>
</g>
<defs>
<clipPath id="clip0_90_812">
<rect width="16" height="15.8601" fill="white" transform="translate(0 0.0683594)"/>
</clipPath>
</defs>
</svg>
