<svg width="16" height="17" viewBox="0 0 16 17" fill="none" xmlns="http://www.w3.org/2000/svg">
<g clip-path="url(#clip0_90_801)">
<path d="M11.725 10.836C11.5857 10.6973 11.4201 10.5874 11.2377 10.5123C11.0554 10.4373 10.8599 10.3986 10.6625 10.3986C10.4651 10.3986 10.2696 10.4373 10.0873 10.5123C9.90496 10.5874 9.73938 10.6973 9.60002 10.836L8.87502 11.5546C8.05872 11.0411 7.30243 10.4393 6.62002 9.76044C5.93514 9.084 5.32809 8.33431 4.81002 7.52515L5.53502 6.80649C5.67486 6.66835 5.78582 6.50421 5.86152 6.32348C5.93723 6.14274 5.9762 5.94897 5.9762 5.75328C5.9762 5.55758 5.93723 5.36381 5.86152 5.18308C5.78582 5.00234 5.67486 4.8382 5.53502 4.70006L4.12002 3.30239C3.98263 3.16331 3.81844 3.05303 3.6372 2.97811C3.45597 2.90318 3.26138 2.86514 3.06502 2.86623C2.86726 2.86575 2.67136 2.90404 2.48858 2.97889C2.30581 3.05375 2.13977 3.16369 2.00002 3.30239L1.32002 3.97149C0.995906 4.31693 0.754006 4.72997 0.612103 5.18026C0.470199 5.63056 0.4319 6.10665 0.50002 6.57354C0.66002 8.43215 1.89002 10.6674 3.78502 12.5508C5.68002 14.4342 7.96002 15.6485 9.83502 15.8269C9.97492 15.8344 10.1151 15.8344 10.255 15.8269C10.6586 15.8437 11.0616 15.7805 11.4402 15.6409C11.8188 15.5013 12.1656 15.2882 12.46 15.0141L13.135 14.3401C13.2749 14.2015 13.3859 14.0369 13.4614 13.8558C13.5369 13.6746 13.5755 13.4804 13.575 13.2844C13.5761 13.0897 13.5377 12.8968 13.4622 12.7172C13.3866 12.5375 13.2753 12.3748 13.135 12.2386L11.725 10.836Z" fill="#424F50"/>
<path d="M13.3 3.13335C12.6051 2.44193 11.7791 1.8937 10.8694 1.52026C9.95978 1.14683 8.98456 0.955576 8 0.957534C7.86739 0.957534 7.74021 1.00975 7.64645 1.1027C7.55268 1.19565 7.5 1.32171 7.5 1.45316C7.5 1.58461 7.55268 1.71068 7.64645 1.80363C7.74021 1.89658 7.86739 1.94879 8 1.94879C8.85824 1.94876 9.70799 2.11721 10.5002 2.44441C11.2924 2.77162 12.0114 3.2511 12.6157 3.85519C13.2201 4.45928 13.6977 5.17602 14.0211 5.96405C14.3445 6.75208 14.5073 7.59579 14.5 8.4465C14.5 8.57794 14.5527 8.70401 14.6464 8.79696C14.7402 8.88991 14.8674 8.94212 15 8.94212C15.1326 8.94212 15.2598 8.88991 15.3536 8.79696C15.4473 8.70401 15.5 8.57794 15.5 8.4465C15.5096 7.46016 15.3199 6.4819 14.942 5.5694C14.5642 4.65689 14.0059 3.8286 13.3 3.13335Z" fill="#424F50"/>
<path d="M10.455 5.96779C10.7388 6.24737 10.9633 6.58038 11.1152 6.94724C11.2672 7.3141 11.3437 7.70738 11.34 8.10395C11.34 8.2354 11.3927 8.36147 11.4865 8.45442C11.5802 8.54737 11.7074 8.59958 11.84 8.59958C11.9726 8.59958 12.0998 8.54737 12.1936 8.45442C12.2873 8.36147 12.34 8.2354 12.34 8.10395C12.3466 7.5791 12.2481 7.05817 12.05 6.57137C11.852 6.08458 11.5584 5.64161 11.1863 5.26816C10.8142 4.8947 10.371 4.5982 9.88239 4.39585C9.3938 4.19349 8.86954 4.08931 8.34003 4.08936C8.20742 4.08936 8.08024 4.14157 7.98647 4.23452C7.8927 4.32747 7.84003 4.45354 7.84003 4.58498C7.84003 4.71643 7.8927 4.8425 7.98647 4.93545C8.08024 5.0284 8.20742 5.08061 8.34003 5.08061C8.73406 5.08356 9.12366 5.16342 9.48655 5.31564C9.84945 5.46787 10.1785 5.68947 10.455 5.96779Z" fill="#424F50"/>
</g>
<defs>
<clipPath id="clip0_90_801">
<rect width="16" height="15.8601" fill="white" transform="translate(0 0.461914)"/>
</clipPath>
</defs>
</svg>
