<svg width="18" height="18" viewBox="0 0 18 18" fill="none" xmlns="http://www.w3.org/2000/svg">
<path d="M9.00002 0.666656C4.40835 0.666656 0.666687 4.40832 0.666687 8.99999C0.666687 13.5917 4.40835 17.3333 9.00002 17.3333C13.5917 17.3333 17.3334 13.5917 17.3334 8.99999C17.3334 4.40832 13.5917 0.666656 9.00002 0.666656ZM12.3334 9.62499H9.62502V12.3333C9.62502 12.675 9.34169 12.9583 9.00002 12.9583C8.65835 12.9583 8.37502 12.675 8.37502 12.3333V9.62499H5.66669C5.32502 9.62499 5.04169 9.34166 5.04169 8.99999C5.04169 8.65832 5.32502 8.37499 5.66669 8.37499H8.37502V5.66666C8.37502 5.32499 8.65835 5.04166 9.00002 5.04166C9.34169 5.04166 9.62502 5.32499 9.62502 5.66666V8.37499H12.3334C12.675 8.37499 12.9584 8.65832 12.9584 8.99999C12.9584 9.34166 12.675 9.62499 12.3334 9.62499Z" fill="white"/>
</svg>
