<svg width="64" height="64" viewBox="0 0 64 64" fill="none" xmlns="http://www.w3.org/2000/svg">
<path d="M50.6293 26.2257C50.5004 24.8322 50.599 21.0441 54.2279 15.7765C54.5024 15.379 54.4526 14.8429 54.1117 14.5021C52.6322 13.0226 51.7162 12.089 51.0737 11.4357C50.2289 10.5743 49.8432 10.1818 49.2787 9.67004C48.9018 9.33124 48.3315 9.32534 47.9506 9.65744C41.6254 15.1613 34.6 26.5343 35.6166 40.4679C36.2123 48.6495 42.1801 54.588 49.8061 54.588C57.6322 54.588 63.9994 48.2218 63.9994 40.3956C63.9994 32.8458 58.0737 26.6544 50.6293 26.2257ZM49.8061 52.588C43.2572 52.588 38.1293 47.4298 37.6108 40.3234C37.6108 40.3234 37.6108 40.3234 37.6108 40.3224C36.4672 24.6515 45.7826 14.4728 48.5971 11.7775C48.8715 12.048 49.185 12.3663 49.6469 12.837C50.2035 13.4034 50.9653 14.1788 52.1176 15.3351C47.7123 22.1222 48.5434 26.9581 48.9076 27.6515C49.0805 27.9806 49.435 28.2023 49.8061 28.2023C56.5297 28.2023 61.9994 33.672 61.9994 40.3956C61.9994 47.1183 56.5297 52.588 49.8061 52.588Z" fill="#F0002A"/>
<path d="M15.1137 26.226C14.9838 24.8364 15.0795 21.0512 18.7123 15.7768C18.9858 15.3793 18.9369 14.8432 18.5961 14.5024C17.1195 13.0258 16.2045 12.0932 15.5629 11.4399C14.7153 10.5766 14.3285 10.183 13.7641 9.67028C13.3871 9.33148 12.8168 9.32658 12.436 9.65668C6.11077 15.1606 -0.915635 26.5317 0.0989652 40.4682V40.4692C0.696665 48.6498 6.66537 54.5883 14.2914 54.5883C22.1176 54.5883 28.4848 48.2221 28.4848 40.3959C28.4848 32.8452 22.559 26.6528 15.1137 26.226ZM14.2914 52.5883C7.74357 52.5883 2.61267 47.4301 2.09316 40.3227V40.3237C0.952565 24.6489 10.268 14.4721 13.0824 11.7778C13.3578 12.0483 13.6723 12.3686 14.1352 12.8403C14.6908 13.4067 15.4516 14.1811 16.602 15.3354C12.1967 22.1235 13.0278 26.9584 13.392 27.6508C13.5649 27.9799 13.9203 28.2026 14.2914 28.2026C21.0151 28.2026 26.4848 33.6723 26.4848 40.3959C26.4848 47.1186 21.0151 52.5883 14.2914 52.5883Z" fill="#F0002A"/>
</svg>
