<svg width="20" height="20" viewBox="0 0 20 20" fill="none" xmlns="http://www.w3.org/2000/svg">
<path d="M13.4917 1.6665H6.50832C3.47499 1.6665 1.66666 3.47484 1.66666 6.50817V13.4832C1.66666 16.5248 3.47499 18.3332 6.50832 18.3332H13.4833C16.5167 18.3332 18.325 16.5248 18.325 13.4915V6.50817C18.3333 3.47484 16.525 1.6665 13.4917 1.6665ZM14.4583 7.5415L12.5083 13.8248C12.0417 15.3165 9.94999 15.3415 9.45832 13.8582L8.87499 12.1332C8.71666 11.6582 8.34166 11.2748 7.86666 11.1248L6.13332 10.5415C4.66666 10.0498 4.68332 7.9415 6.17499 7.4915L12.4583 5.53317C13.6917 5.15817 14.85 6.3165 14.4583 7.5415Z" fill="white"/>
</svg>
