<svg width="20" height="20" viewBox="0 0 20 20" fill="none" xmlns="http://www.w3.org/2000/svg">
<path d="M17.75 18.3333C17.6 18.3333 17.45 18.275 17.3417 18.1667L15.7917 16.6167C15.5667 16.3917 15.5667 16.025 15.7917 15.7917C16.0167 15.5667 16.3833 15.5667 16.6167 15.7917L18.1667 17.3417C18.3917 17.5667 18.3917 17.9333 18.1667 18.1667C18.05 18.275 17.9 18.3333 17.75 18.3333Z" fill="white"/>
<path d="M9.58332 1.66667C5.21666 1.66667 1.66666 5.21667 1.66666 9.58333C1.66666 13.95 5.21666 17.5 9.58332 17.5C13.95 17.5 17.5 13.95 17.5 9.58333C17.5 5.21667 13.95 1.66667 9.58332 1.66667ZM11.8333 10.375H10.375V11.8333C10.375 12.175 10.0917 12.4583 9.74999 12.4583C9.40832 12.4583 9.12499 12.175 9.12499 11.8333V10.375H7.66666C7.32499 10.375 7.04166 10.0917 7.04166 9.75C7.04166 9.40833 7.32499 9.125 7.66666 9.125H9.12499V7.66667C9.12499 7.325 9.40832 7.04167 9.74999 7.04167C10.0917 7.04167 10.375 7.325 10.375 7.66667V9.125H11.8333C12.175 9.125 12.4583 9.40833 12.4583 9.75C12.4583 10.0917 12.175 10.375 11.8333 10.375Z" fill="white"/>
</svg>
