<svg width="24" height="24" viewBox="0 0 24 24" fill="none" xmlns="http://www.w3.org/2000/svg">
<path d="M17.3315 14.4531C16.1975 14.4531 15.1823 14.9851 14.5087 15.819L10.1269 13.2605C10.2632 12.8662 10.3381 12.4422 10.3381 12.0003C10.3381 11.5585 10.2632 11.1345 10.1269 10.7402L14.5083 8.18111C15.1819 9.01529 16.1972 9.54748 17.3313 9.54748C19.3542 9.54748 20.9999 7.85437 20.9999 5.77317C21.0001 3.69258 19.3543 2 17.3315 2C15.3084 2 13.6624 3.69258 13.6624 5.77308C13.6624 6.21495 13.7372 6.63904 13.8736 7.03347L9.49192 9.59263C8.8184 8.75888 7.80329 8.22705 6.66955 8.22705C4.64618 8.22705 3 9.91964 3 12.0002C3 14.0807 4.64618 15.7733 6.66955 15.7733C7.80329 15.7733 8.81832 15.2415 9.49184 14.4078L13.8736 16.9664C13.7372 17.3608 13.6624 17.785 13.6624 18.2269C13.6624 20.3074 15.3083 22 17.3314 22C19.3543 22 21 20.3073 21 18.2269C21.0001 16.1461 19.3543 14.4531 17.3315 14.4531ZM17.3315 3.32034C18.6464 3.32034 19.7162 4.42061 19.7162 5.77308C19.7162 7.12625 18.6464 8.22705 17.3315 8.22705C16.0163 8.22705 14.9463 7.12625 14.9463 5.77308C14.9463 4.42061 16.0163 3.32034 17.3315 3.32034ZM6.66964 14.4531C5.35419 14.4531 4.28395 13.3527 4.28395 12.0003C4.28395 10.6478 5.35419 9.54748 6.66964 9.54748C7.98457 9.54748 9.05429 10.6478 9.05429 12.0003C9.05429 13.3527 7.98449 14.4531 6.66964 14.4531ZM17.3315 20.6798C16.0163 20.6798 14.9463 19.5794 14.9463 18.227C14.9463 16.8741 16.0163 15.7734 17.3315 15.7734C18.6464 15.7734 19.7162 16.8741 19.7162 18.227C19.7162 19.5794 18.6464 20.6798 17.3315 20.6798Z" fill="#F0002A"/>
</svg>
