<svg width="17" height="16" viewBox="0 0 17 16" fill="none" xmlns="http://www.w3.org/2000/svg">
<path d="M9.77931 2.19399L10.9602 4.55978C11.1213 4.88911 11.5507 5.205 11.913 5.26549L14.0534 5.62171C15.4222 5.85022 15.7443 6.84493 14.758 7.8262L13.0939 9.49301C12.8121 9.77529 12.6578 10.3197 12.745 10.7095L13.2214 12.7729C13.5972 14.4061 12.7316 15.0379 11.289 14.1843L9.28279 12.9947C8.92046 12.7796 8.32329 12.7796 7.95425 12.9947L5.94803 14.1843C4.51213 15.0379 3.63986 14.3994 4.01561 12.7729L4.492 10.7095C4.57923 10.3197 4.42491 9.77529 4.1431 9.49301L2.47907 7.8262C1.49944 6.84493 1.8148 5.85022 3.1836 5.62171L5.32402 5.26549C5.67964 5.205 6.10906 4.88911 6.2701 4.55978L7.45102 2.19399C8.09516 0.910273 9.14189 0.910273 9.77931 2.19399Z" stroke="#FFB800" stroke-width="2" stroke-linecap="round" stroke-linejoin="round"/>
</svg>
