<svg width="16" height="16" viewBox="0 0 16 16" fill="none" xmlns="http://www.w3.org/2000/svg">
<path d="M9.00421 2.18585L10.1774 4.53226C10.3374 4.85889 10.764 5.17219 11.124 5.23218L13.2504 5.58547C14.6103 5.81212 14.9302 6.79867 13.9503 7.7719L12.2972 9.42505C12.0172 9.70502 11.8639 10.245 11.9506 10.6316L12.4238 12.678C12.7971 14.2978 11.9372 14.9244 10.504 14.0779L8.51094 12.898C8.15098 12.6847 7.55771 12.6847 7.19108 12.898L5.19797 14.0779C3.77146 14.9244 2.90489 14.2912 3.27818 12.678L3.75146 10.6316C3.83812 10.245 3.6848 9.70502 3.40483 9.42505L1.75168 7.7719C0.778458 6.79867 1.09176 5.81212 2.45161 5.58547L4.57804 5.23218C4.93133 5.17219 5.35795 4.85889 5.51793 4.53226L6.69114 2.18585C7.33107 0.912659 8.37095 0.912659 9.00421 2.18585Z" fill="#FFB800" stroke="#FFB800" stroke-width="2" stroke-linecap="round" stroke-linejoin="round"/>
</svg>
