<svg width="36" height="45" viewBox="0 0 36 45" fill="none" xmlns="http://www.w3.org/2000/svg">
<g clip-path="url(#clip0_269_2150)">
<path d="M24.4459 1.15641e-06H3.9921C3.75201 -0.000266959 3.51422 0.0460898 3.29232 0.136421C3.07043 0.226752 2.86878 0.359286 2.69892 0.526444C2.52905 0.693603 2.39429 0.892107 2.30235 1.11061C2.21041 1.32911 2.16309 1.56332 2.16309 1.79985V43.1997C2.16309 43.6771 2.35556 44.1349 2.69818 44.4724C3.0408 44.81 3.50549 44.9996 3.99003 44.9996H32.0055C32.49 44.9996 32.9547 44.81 33.2973 44.4724C33.64 44.1349 33.8324 43.6771 33.8324 43.1997V9.24776L24.4459 1.15641e-06Z" fill="#E1E6E9"/>
<path d="M24.4473 9.2478H33.8342L24.4473 -0.000366211V9.2478Z" fill="#EBF0F3"/>
<path d="M34.7819 37.125H1.2181C0.89504 37.125 0.585212 36.9275 0.356774 36.576C0.128336 36.2245 0 35.7477 0 35.2506V18.7494C0 18.2523 0.128336 17.7755 0.356774 17.424C0.585212 17.0725 0.89504 16.875 1.2181 16.875H34.7819C35.105 16.875 35.4148 17.0725 35.6432 17.424C35.8717 17.7755 36 18.2523 36 18.7494V35.2506C36 35.7477 35.8717 36.2245 35.6432 36.576C35.4148 36.9275 35.105 37.125 34.7819 37.125Z" fill="#F0002A"/>
<path d="M11.7272 23.289C12.0579 23.5919 12.3147 23.9647 12.4781 24.3794C12.6416 24.794 12.7075 25.2398 12.671 25.6832C12.7094 26.1248 12.6422 26.569 12.4749 26.9804C12.3076 27.3918 12.0447 27.7588 11.7074 28.0521C10.8344 28.6177 9.79565 28.882 8.75384 28.8035H7.15041V31.4144H5.625V22.5118H8.72764C10.099 22.5118 11.0988 22.7709 11.7272 23.289ZM10.6478 26.9634C10.9793 26.5726 11.1438 26.0702 11.1066 25.5622C11.1317 25.3136 11.0914 25.0628 10.9894 24.8341C10.8874 24.6055 10.7272 24.4066 10.5244 24.2567C9.96535 23.9622 9.33311 23.8298 8.70085 23.8747H7.15041V27.4389H8.92093C9.53754 27.5104 10.1579 27.3398 10.6478 26.964V26.9634Z" fill="white"/>
<path d="M21.305 23.6772C21.7485 24.0918 22.095 24.5966 22.3205 25.1564C22.546 25.7163 22.6451 26.3177 22.6109 26.9191C22.6426 27.5234 22.5464 28.1277 22.3283 28.6934C22.1102 29.2591 21.775 29.774 21.344 30.2052C20.499 31.012 19.2063 31.4154 17.4659 31.4154H14.4663V22.5117H17.5689C18.9188 22.4232 20.2529 22.8394 21.305 23.6772ZM21.0721 26.957C21.0721 24.9192 19.8871 23.9003 17.5171 23.9003H15.9917V30.0016H17.686C18.5924 30.0622 19.4891 29.7873 20.2006 29.2306C20.5044 28.9365 20.7397 28.5809 20.8902 28.1883C21.0407 27.7957 21.1028 27.3755 21.0721 26.957Z" fill="white"/>
<path d="M26.1036 23.9131V26.3583H30.1134V27.7469H26.106V31.4179H24.5806V22.5118H30.6053L30.5925 23.9131H26.106H26.1036Z" fill="white"/>
</g>
<defs>
<clipPath id="clip0_269_2150">
<rect width="36" height="45" fill="white"/>
</clipPath>
</defs>
</svg>
