<svg width="36" height="45" viewBox="0 0 36 45" fill="none" xmlns="http://www.w3.org/2000/svg">
<path d="M24.4459 1.15641e-06H3.9921C3.75201 -0.000266959 3.51422 0.0460898 3.29232 0.136421C3.07043 0.226752 2.86878 0.359286 2.69892 0.526444C2.52905 0.693603 2.39429 0.892107 2.30235 1.11061C2.21041 1.32911 2.16309 1.56332 2.16309 1.79985V43.1997C2.16309 43.6771 2.35556 44.1349 2.69818 44.4724C3.0408 44.81 3.50549 44.9996 3.99003 44.9996H32.0055C32.49 44.9996 32.9547 44.81 33.2973 44.4724C33.64 44.1349 33.8324 43.6771 33.8324 43.1997V9.24776L24.4459 1.15641e-06Z" fill="#E1E6E9"/>
<path d="M24.4473 9.2478H33.8342L24.4473 -0.000366211V9.2478Z" fill="#EBF0F3"/>
<path d="M34.7819 37.125H1.2181C0.89504 37.125 0.585212 36.9275 0.356774 36.576C0.128336 36.2245 0 35.7477 0 35.2506V18.7494C0 18.2523 0.128336 17.7755 0.356774 17.424C0.585212 17.0725 0.89504 16.875 1.2181 16.875H34.7819C35.105 16.875 35.4148 17.0725 35.6432 17.424C35.8717 17.7755 36 18.2523 36 18.7494V35.2506C36 35.7477 35.8717 36.2245 35.6432 36.576C35.4148 36.9275 35.105 37.125 34.7819 37.125Z" fill="#1BAE8A"/>
<path d="M10.2617 30.8164H14.8203V32H8.46875V31.0391L12.8809 24.6641H8.49805V23.4688H14.6797V24.4062L10.2617 30.8164ZM18.6621 32H17.1855V23.4688H18.6621V32ZM22.9668 28.8301V32H21.4844V23.4688H24.748C25.7012 23.4688 26.457 23.7168 27.0156 24.2129C27.5781 24.709 27.8594 25.3652 27.8594 26.1816C27.8594 27.0176 27.584 27.668 27.0332 28.1328C26.4863 28.5977 25.7188 28.8301 24.7305 28.8301H22.9668ZM22.9668 27.6406H24.748C25.2754 27.6406 25.6777 27.5176 25.9551 27.2715C26.2324 27.0215 26.3711 26.6621 26.3711 26.1934C26.3711 25.7324 26.2305 25.3652 25.9492 25.0918C25.668 24.8145 25.2812 24.6719 24.7891 24.6641H22.9668V27.6406Z" fill="white"/>
</svg>
