<svg width="64" height="64" viewBox="0 0 64 64" fill="none" xmlns="http://www.w3.org/2000/svg">
<path d="M16.3316 0.208618L0 21.1026L8.12018 27.5383L3.28457 46.052L9.21503 48.5205L4.5619 53.4575L13.7769 61.3919L20.711 54.0746L29.2874 60.6866L36.039 53.4575C35.5524 55.544 35.4916 60.3164 39.1411 62.7143C45.0533 66.4523 51.3974 61.1568 53.8304 58.0418L57.8449 59.2438L61.4944 53.4575L59.9433 50.6364C67.4613 42.6667 62.8325 42.6138 59.5784 43.5835C57.8996 44.3593 56.2634 42.8489 55.6552 41.9966C56.5675 40.88 58.7025 38.1881 59.9433 36.3544C67.3884 22.5308 58.5444 21.6022 53.1917 22.8658L60.582 9.02467L52.3706 2.67712L46.4401 8.58385C46.5314 7.84919 46.3306 5.81563 44.7978 3.55871C39.5425 -4.76363 29.8956 3.44117 25.7291 8.58385L26.5502 4.7048L16.3316 0.208618Z" fill="#582949"/>
</svg>
